<?xml version="1.0" encoding="UTF-8" standalone="no"?>
<svg
   xmlns:dc="http://purl.org/dc/elements/1.1/"
   xmlns:cc="http://creativecommons.org/ns#"
   xmlns:rdf="http://www.w3.org/1999/02/22-rdf-syntax-ns#"
   xmlns:svg="http://www.w3.org/2000/svg"
   xmlns="http://www.w3.org/2000/svg"
   viewBox="0 0 960 480"
   height="150"
   width="301"
   xml:space="preserve"
   id="svg2"
   version="1.1"><metadata
     id="metadata8"><rdf:RDF><cc:Work
         rdf:about=""><dc:format>image/svg+xml</dc:format><dc:type
           rdf:resource="http://purl.org/dc/dcmitype/StillImage" /></cc:Work></rdf:RDF></metadata><defs
     id="defs6"><clipPath
       id="clipPath18"
       clipPathUnits="userSpaceOnUse"><path
         id="path16"
         d="M 0,360 H 720 V 0 H 0 Z" /></clipPath></defs><g
     transform="matrix(1.3333333,0,0,-1.3333333,0,480)"
     id="g10"><g
       id="g12"><g
         clip-path="url(#clipPath18)"
         id="g14"><g
           transform="translate(64.96,183.04)"
           id="g20"><path
             id="path22"
             style="fill:#352652;fill-opacity:1;fill-rule:nonzero;stroke:none"
             d="m 0,0 c 0.374,0.361 0.752,0.716 1.12,1.083 23.08,23.079 46.16,46.158 69.233,69.244 0.363,0.363 0.636,0.816 0.874,1.126 17.879,-17.889 35.549,-35.569 53.289,-53.318 -3.983,-1.236 -8.084,-2.508 -12.28,-3.809 C 98.706,27.867 85.192,41.39 71.774,54.819 53.36,36.405 35.072,18.117 16.91,-0.045 c 18.196,-18.184 36.516,-36.492 54.969,-54.932 13.356,13.357 26.945,26.946 40.576,40.577 4.178,-1.292 8.289,-2.563 12.587,-3.892 -0.449,-0.472 -0.764,-0.814 -1.093,-1.144 C 106.924,-36.464 89.896,-53.49 72.873,-70.52 72.481,-70.912 72.13,-71.346 71.76,-71.76 h -0.48 c -0.248,0.306 -0.471,0.636 -0.747,0.912 -4.001,4.018 -8.006,8.031 -12.015,12.039 C 40.901,-41.192 23.285,-23.574 5.66,-5.966 3.801,-4.109 1.888,-2.307 0,-0.48 Z" /></g><g
           transform="translate(141.6426,186.4248)"
           id="g24"><path
             id="path26"
             style="fill:#2b61a9;fill-opacity:1;fill-rule:nonzero;stroke:none"
             d="m 0,0 c -3.462,-1.078 -6.881,-2.144 -10.3,-3.208 -0.013,-0.11 -0.024,-0.219 -0.036,-0.329 3.428,-1.076 6.857,-2.152 10.332,-3.243 C 0.999,-16.909 5.178,-25.458 12.308,-32.402 9.755,-34.969 7.285,-37.451 4.81,-39.94 -15.323,-22.227 -16.95,13.061 4.624,33.065 7.11,30.614 9.599,28.161 12.225,25.573 5.122,18.527 0.972,10.049 0,0" /></g><g
           transform="translate(223.3721,211.7822)"
           id="g28"><path
             id="path30"
             style="fill:#32abd9;fill-opacity:1;fill-rule:nonzero;stroke:none"
             d="m 0,0 c -3.617,-1.123 -7.109,-2.207 -10.625,-3.298 -9.581,10.913 -21.521,15.804 -35.931,14.499 -2.902,2.952 -5.779,5.879 -8.821,8.971 7.854,2.231 15.704,2.447 23.649,0.894 C -17.151,18.219 -5.716,8.894 0,0" /></g><g
           transform="translate(168.3408,134.1689)"
           id="g32"><path
             id="path34"
             style="fill:#32abd9;fill-opacity:1;fill-rule:nonzero;stroke:none"
             d="M 0,0 C 2.88,2.896 5.801,5.833 8.842,8.892 22.97,7.671 34.84,12.545 44.399,23.423 47.875,22.348 51.372,21.267 55.132,20.104 49.505,11.98 42.289,6.132 33.438,2.232 21.166,-3.175 7.47,-2.675 0,0" /></g><g
           transform="translate(307.6626,182.8794)"
           id="g36"><path
             id="path38"
             style="fill:#352652;fill-opacity:1;fill-rule:nonzero;stroke:none"
             d="m 0,0 c 0.226,-1.495 0.346,-3.014 0.697,-4.479 0.989,-4.121 4.018,-6.884 7.889,-7.333 4.836,-0.562 8.585,1.194 10.407,5.107 2.1,4.512 2.146,9.154 0.093,13.683 -1.633,3.601 -4.64,5.186 -8.565,5.225 C 6.582,12.241 3.525,10.806 1.681,7.209 0.528,4.958 0.127,2.53 0,0 m 8.083,-18.832 c -0.16,-10e-4 -0.318,-0.003 -0.478,-0.006 -8.881,1.271 -13.383,6.739 -14.59,15.351 h -4.804 V -18.471 H -19.31 V 18.78 h 7.482 V 3.503 h 4.719 c 0.233,1.125 0.406,2.225 0.69,3.295 2.104,7.937 8.579,12.68 16.892,12.452 4.443,-0.123 8.542,-1.158 11.956,-4.186 2.795,-2.479 4.467,-5.619 5.258,-9.219 0.953,-4.33 0.915,-8.677 -0.426,-12.921 -2.179,-6.898 -6.884,-10.86 -14.105,-11.757 -0.394,-0.003 -0.788,-0.007 -1.182,-0.011 -0.982,0 -1.963,-10e-4 -2.945,-10e-4 -0.316,0.005 -0.631,0.01 -0.946,0.013" /></g><g
           transform="translate(553.7598,164.4141)"
           id="g40"><path
             id="path42"
             style="fill:#32abd9;fill-opacity:1;fill-rule:nonzero;stroke:none"
             d="m 0,0 h -7.308 v 23.569 c -0.114,0.044 -0.228,0.088 -0.341,0.132 C -7.93,23.354 -8.223,23.017 -8.487,22.659 -13.804,15.454 -19.133,8.258 -24.41,1.024 c -0.617,-0.844 -1.257,-1.192 -2.286,-1.142 -1.59,0.076 -3.186,0.019 -4.931,0.019 v 37.298 h 7.428 V 13.232 c 0.091,-0.029 0.182,-0.058 0.273,-0.087 0.236,0.289 0.484,0.568 0.702,0.869 5.389,7.4 10.784,14.796 16.145,22.215 0.574,0.796 1.193,1.163 2.186,1.117 1.585,-0.072 3.176,-0.019 4.893,-0.019 z" /></g><g
           transform="translate(263.9751,171.0049)"
           id="g44"><path
             id="path46"
             style="fill:#352652;fill-opacity:1;fill-rule:nonzero;stroke:none"
             d="m 0,0 c 5.223,0.007 8.648,2.612 10.089,7.673 0.915,3.214 0.799,6.405 -0.307,9.543 -1.569,4.454 -4.98,6.806 -9.784,6.819 C -4.889,24.047 -8.32,21.7 -9.93,17.236 -10.873,14.621 -11.054,11.945 -10.598,9.208 -9.633,3.414 -5.704,-0.008 0,0 m -1.516,-6.964 c -0.239,0 -0.478,0.001 -0.717,0.001 h -0.716 c -9.176,1.205 -15.091,7.741 -15.565,17.213 -0.169,3.383 0.116,6.712 1.383,9.892 2.608,6.54 7.543,10.129 14.441,10.77 2.775,0.257 5.714,0.075 8.425,-0.56 C 12.533,28.758 17.251,23.067 18.187,15.96 18.646,12.475 18.575,9.021 17.591,5.628 15.506,-1.558 10.114,-6.075 2.603,-6.969 2.289,-6.967 1.974,-6.966 1.66,-6.964 Z" /></g><g
           transform="translate(497.042,171.0186)"
           id="g48"><path
             id="path50"
             style="fill:#32abd9;fill-opacity:1;fill-rule:nonzero;stroke:none"
             d="m 0,0 c 5.067,-0.054 8.365,1.769 10.121,5.85 1.849,4.296 1.764,8.649 -0.331,12.865 -2.032,4.09 -5.594,5.487 -9.923,5.287 -4.133,-0.19 -7.12,-2.182 -8.782,-5.991 C -10.373,14.667 -10.544,11.203 -9.543,7.699 -8.099,2.649 -4.561,-0.001 0,0 m 3.295,-6.979 c -0.318,0.006 -0.637,0.011 -0.954,0.017 -1.135,-0.001 -2.27,-0.001 -3.404,-0.002 -0.398,0 -0.795,-10e-4 -1.193,-10e-4 -9.213,1.172 -15.246,7.899 -15.58,17.347 -0.174,4.908 0.552,9.589 3.504,13.678 3.074,4.259 7.358,6.463 12.515,6.877 2.17,0.175 4.42,0.149 6.558,-0.218 C 12.03,29.467 16.564,25.07 18.443,17.97 19.507,13.95 19.421,9.886 18.354,5.868 16.433,-1.362 10.83,-6.121 3.295,-6.979" /></g><g
           transform="translate(597.0615,164.0537)"
           id="g52"><path
             id="path54"
             style="fill:#2b61a9;fill-opacity:1;fill-rule:nonzero;stroke:none"
             d="m 0,0 c -0.323,0.003 -0.646,0.005 -0.968,0.008 -0.974,-0.005 -1.95,-0.01 -2.925,-0.015 -0.314,0 -0.629,0.001 -0.944,0.001 -6.25,0.899 -10.872,5.531 -10.873,10.978 h 7.219 c 0.181,-0.317 0.37,-0.665 0.574,-1.004 1.969,-3.267 7.262,-4.132 10.127,-1.616 1.821,1.598 2.141,3.676 1.607,5.923 -0.51,2.156 -1.949,3.447 -4.063,3.962 -2.552,0.621 -4.881,0.015 -7.127,-1.279 -0.779,-0.45 -1.757,-0.684 -2.664,-0.755 -1.54,-0.12 -3.096,-0.033 -4.831,-0.033 0.235,7.221 0.466,14.267 0.699,21.411 H 10.354 V 30.757 H -7.012 c -0.15,-2.541 -0.29,-4.907 -0.414,-7.019 2.274,0.448 4.461,1.03 6.685,1.262 1.439,0.149 2.979,-0.023 4.391,-0.381 4.781,-1.21 7.247,-4.502 7.977,-9.268 C 12.851,7.365 7.97,0.904 0,0" /></g><g
           transform="translate(353.6582,164.0547)"
           id="g56"><path
             id="path58"
             style="fill:#352652;fill-opacity:1;fill-rule:nonzero;stroke:none"
             d="m 0,0 c -0.24,-0.007 -0.479,-0.015 -0.719,-0.021 -2.776,0.284 -5.427,0.971 -7.812,2.474 -3.451,2.175 -5.073,5.39 -5.356,9.476 h 7.122 c 2.187,-4.204 5.648,-5.742 10.982,-4.837 0.744,0.126 1.492,0.302 2.2,0.56 2.302,0.842 3.23,2.394 2.966,4.845 -0.198,1.83 -1.542,3.133 -3.801,3.347 -2.183,0.207 -4.387,0.181 -6.582,0.251 -0.516,0.016 -1.033,0.002 -1.659,0.002 v 6.247 c 0.542,0.031 1.081,0.057 1.619,0.093 1.869,0.127 3.759,0.128 5.601,0.425 1.56,0.252 2.828,1.161 3.325,2.781 0.651,2.126 -0.203,3.945 -2.336,4.734 -2.803,1.038 -5.653,0.994 -8.427,-0.151 -1.627,-0.671 -2.596,-1.947 -2.802,-3.729 h -7.253 c -0.065,3.118 1.034,5.667 3.254,7.72 2.348,2.171 5.238,3.16 8.346,3.589 3.699,0.51 7.348,0.372 10.84,-1.097 4.674,-1.965 6.75,-5.822 5.887,-10.796 C 15.08,24.101 14.183,22.634 12.799,21.449 12.416,21.122 12.016,20.815 11.572,20.459 18.26,17.935 18.137,8.299 14.817,4.649 12.581,2.19 9.778,0.926 6.615,0.28 5.951,0.145 5.273,0.078 4.601,-0.021 c -0.314,0 -0.629,0 -0.943,0 C 2.438,-0.014 1.219,-0.007 0,0" /></g><g
           transform="translate(454.0947,182.1616)"
           id="g60"><path
             id="path62"
             style="fill:#32abd9;fill-opacity:1;fill-rule:nonzero;stroke:none"
             d="m 0,0 c 3.123,0.184 6.093,0.347 9.06,0.549 0.381,0.026 0.76,0.237 1.122,0.403 2.667,1.231 3.894,3.923 3.261,7.13 -0.541,2.747 -2.295,4.206 -5.38,4.316 C 5.71,12.483 3.351,12.44 0.994,12.438 0.689,12.438 0.385,12.341 0,12.275 Z m -0.083,-6.695 v -11.038 h -7.5 v 37.214 c 0.513,0.039 0.901,0.094 1.29,0.094 4.556,0.004 9.115,0.1 13.666,-0.048 2.051,-0.066 4.15,-0.408 6.114,-1.001 4.225,-1.273 6.652,-4.266 7.309,-8.622 C 21.354,6.193 21.263,2.536 19.126,-0.741 16.453,-4.84 12.332,-6.242 7.724,-6.538 5.653,-6.671 3.568,-6.568 1.491,-6.584 1.024,-6.588 0.559,-6.648 -0.083,-6.695" /></g><g
           transform="translate(391.8184,164.0547)"
           id="g64"><path
             id="path66"
             style="fill:#32abd9;fill-opacity:1;fill-rule:nonzero;stroke:none"
             d="m 0,0 c -0.397,-0.001 -0.795,-0.001 -1.192,-0.001 -8.103,0.88 -13.731,6.434 -14.83,14.73 -0.726,5.472 -0.336,10.808 2.653,15.642 2.899,4.69 7.249,7.067 12.68,7.579 3.309,0.313 6.559,0.067 9.66,-1.204 4.633,-1.899 7.308,-5.404 8.236,-10.286 0.049,-0.26 0.006,-0.537 0.006,-0.918 h -6.969 c -0.092,0.103 -0.207,0.177 -0.245,0.281 -1.661,4.482 -5.692,5.569 -9.783,5.063 -4.941,-0.61 -8.005,-4.082 -8.558,-9.603 -0.299,-2.976 -0.062,-5.903 1.166,-8.7 2.655,-6.045 11.614,-7.776 15.92,-3.019 0.734,0.811 1.206,1.857 1.824,2.834 H 17.62 C 18.494,6.795 11.291,0.35 3.9,-0.006 2.601,-0.004 1.301,-0.002 0,0" /></g><g
           transform="translate(227.9458,164.0312)"
           id="g68"><path
             id="path70"
             style="fill:#352652;fill-opacity:1;fill-rule:nonzero;stroke:none"
             d="M 0,0 C -0.242,0.008 -0.483,0.015 -0.725,0.022 L -4.373,0.02 C -4.688,0.019 -5.004,0.017 -5.32,0.016 c -8.402,1.06 -13.908,6.656 -14.881,15.069 -0.538,4.647 -0.292,9.198 1.724,13.492 2.701,5.753 7.359,8.769 13.616,9.39 3.301,0.328 6.552,0.085 9.663,-1.178 4.791,-1.946 7.448,-5.581 8.334,-10.601 0.033,-0.189 0.004,-0.39 0.004,-0.669 h -7.1 c -0.075,0.116 -0.187,0.237 -0.239,0.381 -1.222,3.414 -3.836,4.882 -7.27,5.081 -6.259,0.363 -10.28,-3.162 -11.008,-9.612 -0.314,-2.776 -0.091,-5.504 0.919,-8.14 2.223,-5.806 9.363,-8.226 14.674,-4.966 1.611,0.987 2.583,2.459 3.116,4.206 h 7.36 C 13.969,6.538 7.607,0.736 0,0" /></g><g
           transform="translate(612.1592,164.3154)"
           id="g72"><path
             id="path74"
             style="fill:#2b61a9;fill-opacity:1;fill-rule:nonzero;stroke:none"
             d="m 0,0 c -0.019,1.877 -0.093,3.756 -0.018,5.629 0.019,0.459 0.435,1.003 0.82,1.328 4.153,3.507 8.388,6.917 12.484,10.488 1.61,1.403 3.057,3.046 4.316,4.772 0.66,0.904 0.982,2.208 1.053,3.356 0.167,2.678 -1.479,4.563 -4.116,5.051 C 11.211,31.24 9.07,30.108 7.275,26.76 H 0.219 c 0.053,0.626 0.045,1.174 0.154,1.696 1.062,5.065 5.305,8.711 10.945,9.18 1.966,0.163 4.026,0.118 5.947,-0.287 6.88,-1.45 10.307,-7.359 8.528,-14.407 C 25.089,20.151 23.646,17.736 21.573,15.81 18.797,13.229 15.837,10.847 12.953,8.381 12.501,7.994 12.036,7.622 11.289,7.005 h 14.868 c 0,-2.44 0,-4.703 -0.001,-6.967 z" /></g><g
           transform="translate(441.876,194.6309)"
           id="g76"><path
             id="path78"
             style="fill:#32abd9;fill-opacity:1;fill-rule:nonzero;stroke:none"
             d="m 0,0 h -11.341 v -30.201 h -7.664 V -0.039 H -30.258 V 6.974 L 0,6.974 Z" /></g><g
           transform="translate(558.6816,191.6704)"
           id="g80"><path
             id="path82"
             style="fill:#2b61a9;fill-opacity:1;fill-rule:nonzero;stroke:none"
             d="m 0,0 v 5.664 c 0.947,0.114 1.846,0.229 2.746,0.329 2.541,0.283 4.674,1.285 6.188,3.432 0.187,0.266 0.53,0.585 0.81,0.595 1.628,0.056 3.258,0.027 4.986,0.027 V -27.254 H 7.258 V 0 Z" /></g><g
           transform="translate(537.7461,218.3726)"
           id="g84"><path
             id="path86"
             style="fill:#32abd9;fill-opacity:1;fill-rule:nonzero;stroke:none"
             d="m 0,0 c 1.532,-1.406 3.049,-2.552 4.257,-3.963 1.903,-2.225 1.368,-5.534 -0.986,-7.31 -2.235,-1.688 -5.521,-1.144 -7.21,1.193 -1.241,1.716 -1.272,4.379 0.11,6.035 C -2.61,-2.583 -1.213,-1.269 0,0" /></g></g></g></g></svg>