<svg width="162" height="46" viewBox="0 0 162 46" fill="none" xmlns="http://www.w3.org/2000/svg">
<path fill-rule="evenodd" clip-rule="evenodd" d="M44.0453 20.8636C44.0453 31.1455 35.3716 39.5727 25.1033 39.7273C23.5271 39.7273 22.4976 39.6727 22.4976 39.6727C22.4976 39.6727 22.5522 37.6 22.2242 35.9909C20.7391 28.7727 14.6073 23.5727 7.16356 23.5727C6.23422 23.5727 5.37778 23.6364 4.50311 23.8C5.314 34.6091 14.088 43.4 25.2127 43.9182C11.9013 44.5 0.831333 34.0727 0.248222 20.9273L0.266445 19.4091C0.266445 19.4091 2.71733 18.3727 6.56222 18.2545C7.83778 9.10909 15.7007 2.07273 25.2127 2.07273C35.6176 2.07273 44.0544 10.4909 44.0544 20.8727L44.0453 20.8636ZM38.6789 20.8636C38.6789 13.4364 32.6473 7.41818 25.2036 7.41818C18.4796 7.41818 12.9127 12.3455 11.9104 18.7727C19.5182 20.5455 25.5042 26.5455 27.2536 34.1455C33.7224 33.1636 38.688 27.6 38.688 20.8727L38.6789 20.8636Z" fill="#424764"/>
<path fill-rule="evenodd" clip-rule="evenodd" d="M91.4778 24.2273H89.5827C87.6875 24.2273 86.4211 23.2636 86.4211 21.7818C86.4211 19.4818 88.9904 19.4455 89.4733 19.4455H91.4869V24.2364L91.4778 24.2273ZM87.478 31C89.8378 27.5091 91.4778 25.1636 91.4778 25.1636V34.2H96.1609V15.3545H89.4278C83.9611 15.3545 81.7289 18.5091 81.7289 21.6636C81.7289 23.9273 83.1411 25.8909 85.3733 26.7818C85.3733 26.7818 82.3849 30.8364 79.852 34.2C82.9315 34.2 85.1091 34.4818 87.478 30.9909V31Z" fill="#424764"/>
<path fill-rule="evenodd" clip-rule="evenodd" d="M120.296 0.0636373C120.296 0.0636373 115.194 3.18182 107.44 7.90909C104.652 9.60909 102.302 12.6545 101.937 13.3273C100.953 15.1909 100.033 17.6182 99.8964 20.8909C99.8782 21.2 99.8691 22.0636 99.8691 22.1091C99.8691 27.2909 101.536 30.4909 103.723 32.3818C105.8 34.1727 108.342 34.8 110.392 34.8C110.666 34.8 110.93 34.7818 111.194 34.7636C116.798 34.4 120.77 30.2545 120.77 25.0727C120.77 19.7636 117.016 15.1273 111.358 15.1273C108.497 15.1273 105.746 16.4636 104.106 19.2455H103.96C105.117 12.3818 111.577 13.7091 116.661 10.2182C121.617 6.81818 120.296 0.0545464 120.296 0.0545464V0.0636373ZM110.584 19.4364C113.627 19.4364 116.087 21.9182 116.087 24.9273C116.087 28.0091 113.59 30.4909 110.584 30.4909C107.568 30.4909 105.081 28 105.081 24.9273C105.081 21.9182 107.532 19.4364 110.584 19.4364Z" fill="#424764"/>
<path fill-rule="evenodd" clip-rule="evenodd" d="M69.7478 15.3545C65.994 15.3545 64.4087 19.6636 64.4087 19.6636H70.5131V34.2091H75.1962L75.2053 19.6636C75.2053 19.6636 75.6791 19.6636 75.9707 19.6636C79.7882 19.6636 81.3098 15.3545 81.3098 15.3545C81.3098 15.3545 70.5404 15.3545 69.7478 15.3545Z" fill="#424764"/>
<path fill-rule="evenodd" clip-rule="evenodd" d="M134.136 14.7636C131.621 14.7636 129.553 15.6818 128.15 17.4636V14.7636C128.15 14.7636 123.467 16.4182 123.467 20.5455C123.467 21.7091 123.467 45.9273 123.467 45.9273H128.15V32.7636C130.346 34.5455 132.578 34.8 134.036 34.8C139.575 34.8 143.858 30.6091 143.858 24.9636C143.858 19.2455 139.84 14.7545 134.154 14.7545L134.136 14.7636ZM133.544 30.5C130.528 30.5 127.931 28.0091 127.931 24.7818C127.931 21.5545 130.537 19.0636 133.544 19.0636C136.632 19.0636 139.165 21.7 139.165 24.7818C139.165 27.8636 136.632 30.5 133.544 30.5Z" fill="#424764"/>
<path fill-rule="evenodd" clip-rule="evenodd" d="M65.1467 15.3545C63.0967 15.3545 59.6891 15.0182 57.3202 18.1182C56.2816 19.4909 52.9287 24.1455 52.9287 24.1455H52.8467H52.792V24.1364C52.792 18.5182 52.8011 15.4545 52.8011 15.4545C52.8011 15.4545 48.1089 16.3818 48.1089 20.5364C48.1089 21.1818 48.1089 34.2 48.1089 34.2H52.792V24.5182H52.8558H52.9287C52.9287 24.5182 55.4069 28.2 57.5571 31.2182C59.7073 34.2364 61.0284 34.2091 65.0464 34.2091C63.1149 31.4727 57.63 24.1545 57.63 24.1545C57.63 24.1545 61.8029 19.1727 65.1467 15.3636V15.3545Z" fill="#424764"/>
<path fill-rule="evenodd" clip-rule="evenodd" d="M155.902 21.3818C152.677 20.9273 151.666 25.2273 151.666 25.2273H153.652C156.513 25.2273 157.069 26.7455 157.069 27.7545C157.069 28.9091 156.212 30.2818 153.871 30.2818H151.602V25.2364V14.7727C151.602 14.7727 147.138 16.4273 146.91 20.5545C146.892 20.8364 146.91 34.2182 146.91 34.2182H154.463C158.854 34.2182 161.752 31.5818 161.752 27.6455C161.752 24.0273 159.155 21.8455 155.902 21.3909V21.3818Z" fill="#424764"/>
<path d="M48.2091 41.8636V39.3818H48.7102V40.3636H49.6942V39.3818H50.1953V41.8636H49.6942V40.7818H48.7102V41.8636H48.2091ZM52.3 39.3818H52.7647V41.0364L53.776 39.3818H54.2771V41.8636H53.8124V40.2364L52.8011 41.8636H52.3V39.3818ZM57.9216 39.3818V40.4364C58.0036 40.4273 58.0673 40.4 58.1129 40.3455C58.1584 40.2909 58.2131 40.1636 58.2951 39.9636C58.3953 39.7091 58.4956 39.5364 58.6049 39.4727C58.7051 39.4 58.8782 39.3636 59.1151 39.3636C59.1242 39.3636 59.1516 39.3636 59.188 39.3636V39.7364H59.1151C59.0149 39.7364 58.942 39.7455 58.8873 39.7727C58.8418 39.8 58.8053 39.8364 58.7689 39.8909C58.7416 39.9455 58.696 40.0455 58.6413 40.2091C58.614 40.2909 58.5776 40.3636 58.5411 40.4273C58.5047 40.4818 58.4409 40.5364 58.3498 40.5909C58.4591 40.6273 58.5502 40.6909 58.6231 40.7818C58.696 40.8727 58.778 41.0091 58.86 41.1909L59.1971 41.8727H58.6049L58.3042 41.2364C58.3042 41.2273 58.2951 41.2091 58.2769 41.1818C58.2678 41.1636 58.2496 41.1273 58.2131 41.0636C58.1493 40.9455 58.0947 40.8727 58.0582 40.8364C58.0218 40.8 57.9671 40.7909 57.9124 40.7909V41.8727H57.4204V40.7909C57.3658 40.7909 57.3111 40.8091 57.2747 40.8364C57.2291 40.8636 57.1836 40.9455 57.1198 41.0636C57.0833 41.1273 57.0651 41.1727 57.056 41.1818C57.0469 41.2 57.0378 41.2182 57.0287 41.2364L56.728 41.8727H56.1358L56.4729 41.1909C56.5549 41.0273 56.6369 40.8909 56.7098 40.7909C56.7827 40.6909 56.8829 40.6273 56.9922 40.5909C56.9011 40.5364 56.8373 40.4818 56.8009 40.4273C56.7644 40.3727 56.728 40.3 56.7007 40.2091C56.646 40.0545 56.6004 39.9455 56.5731 39.8909C56.5458 39.8364 56.5093 39.8 56.4547 39.7727C56.4091 39.7455 56.3271 39.7364 56.2178 39.7364C56.2087 39.7364 56.1813 39.7364 56.154 39.7364V39.3636C56.1904 39.3636 56.2178 39.3636 56.2269 39.3636C56.4729 39.3636 56.646 39.4 56.7462 39.4727C56.8464 39.5455 56.9467 39.7091 57.0469 39.9636C57.1198 40.1636 57.1836 40.2909 57.2291 40.3455C57.2747 40.4 57.3384 40.4273 57.4204 40.4364V39.3818H57.9124H57.9216ZM61.074 41.8636V39.3818H62.9144V39.8H61.5751V40.3545H62.8233V40.7727H61.5751V41.4455H62.96V41.8636H61.074ZM64.9827 39.3818H66.6682V39.8H65.4838V41.8636H64.9827V39.3818ZM68.2262 40.6364C68.2262 40.3818 68.2627 40.1727 68.3447 40C68.3993 39.8727 68.4813 39.7636 68.5724 39.6545C68.6727 39.5545 68.782 39.4818 68.8913 39.4273C69.0462 39.3636 69.2284 39.3273 69.4289 39.3273C69.7933 39.3273 70.0849 39.4455 70.3127 39.6727C70.5313 39.9 70.6407 40.2182 70.6407 40.6182C70.6407 41.0182 70.5313 41.3364 70.3127 41.5636C70.094 41.7909 69.8024 41.9 69.438 41.9C69.0644 41.9 68.7729 41.7909 68.5542 41.5636C68.3356 41.3364 68.2262 41.0273 68.2262 40.6273V40.6364ZM68.7456 40.6182C68.7456 40.9 68.8093 41.1091 68.9369 41.2545C69.0644 41.4 69.2284 41.4727 69.4289 41.4727C69.6293 41.4727 69.7933 41.4 69.9209 41.2545C70.0484 41.1091 70.1122 40.8909 70.1122 40.6091C70.1122 40.3273 70.0484 40.1091 69.9209 39.9727C69.7933 39.8364 69.6293 39.7636 69.4198 39.7636C69.2102 39.7636 69.0462 39.8364 68.9187 39.9727C68.7911 40.1182 68.7273 40.3273 68.7273 40.6182H68.7456ZM72.6087 41.8636V39.3818H73.4104C73.7202 39.3818 73.9116 39.3909 74.0027 39.4182C74.1484 39.4545 74.2669 39.5364 74.358 39.6636C74.4582 39.7909 74.5038 39.9455 74.5038 40.1455C74.5038 40.3 74.4764 40.4273 74.4218 40.5273C74.3671 40.6273 74.2942 40.7091 74.2122 40.7727C74.1302 40.8273 74.0391 40.8727 73.948 40.8909C73.8296 40.9182 73.6564 40.9273 73.4287 40.9273H73.1007V41.8636H72.5996H72.6087ZM73.1098 39.8V40.5091H73.3831C73.5836 40.5091 73.7111 40.5 73.7749 40.4727C73.8387 40.4455 73.8933 40.4091 73.9298 40.3545C73.9662 40.3 73.9844 40.2364 73.9844 40.1636C73.9844 40.0727 73.9571 40 73.9024 39.9364C73.8478 39.8818 73.784 39.8364 73.702 39.8273C73.6382 39.8182 73.5198 39.8091 73.3376 39.8091H73.0916L73.1098 39.8ZM76.2258 40.6364C76.2258 40.3818 76.2622 40.1727 76.3442 40C76.3989 39.8727 76.4809 39.7636 76.572 39.6545C76.6722 39.5545 76.7816 39.4818 76.8909 39.4273C77.0458 39.3636 77.228 39.3273 77.4284 39.3273C77.7929 39.3273 78.0844 39.4455 78.3122 39.6727C78.5309 39.9 78.6402 40.2182 78.6402 40.6182C78.6402 41.0182 78.5309 41.3364 78.3122 41.5636C78.0936 41.7909 77.802 41.9 77.4376 41.9C77.064 41.9 76.7724 41.7909 76.5538 41.5636C76.3351 41.3364 76.2258 41.0273 76.2258 40.6273V40.6364ZM76.7451 40.6182C76.7451 40.9 76.8089 41.1091 76.9364 41.2545C77.064 41.4 77.228 41.4727 77.4284 41.4727C77.6289 41.4727 77.7929 41.4 77.9204 41.2545C78.048 41.1091 78.1118 40.8909 78.1118 40.6091C78.1118 40.3273 78.048 40.1091 77.9204 39.9727C77.7929 39.8364 77.6289 39.7636 77.4193 39.7636C77.2098 39.7636 77.0458 39.8364 76.9182 39.9727C76.7907 40.1182 76.7269 40.3273 76.7269 40.6182H76.7451ZM80.6356 39.3818H82.3484V41.4455H82.5671V42.4091H82.148V41.8727H80.59V42.4091H80.1709V41.4455H80.3804C80.4807 41.2364 80.5536 40.9909 80.5809 40.7091C80.6173 40.4273 80.6264 40.0727 80.6264 39.6455V39.3818H80.6356ZM81.1184 39.8C81.1184 40.5545 81.0456 41.1 80.9089 41.4455H81.8473V39.8H81.1184ZM86.0749 40.9455L86.5578 41.0909C86.4849 41.3636 86.3573 41.5636 86.1842 41.7C86.0111 41.8364 85.7924 41.9 85.5191 41.9C85.1911 41.9 84.9178 41.7909 84.7082 41.5636C84.4987 41.3364 84.3893 41.0273 84.3893 40.6364C84.3893 40.2273 84.4987 39.9 84.7082 39.6727C84.9178 39.4455 85.2002 39.3273 85.5556 39.3273C85.8562 39.3273 86.1113 39.4182 86.2936 39.6C86.4029 39.7091 86.494 39.8545 86.5487 40.0545L86.0476 40.1727C86.0202 40.0455 85.9564 39.9455 85.8653 39.8636C85.7742 39.7909 85.6558 39.7545 85.5282 39.7545C85.346 39.7545 85.1911 39.8182 85.0818 39.9545C84.9633 40.0818 84.9087 40.3 84.9087 40.6C84.9087 40.9091 84.9633 41.1364 85.0818 41.2727C85.1911 41.4091 85.346 41.4727 85.5282 41.4727C85.6649 41.4727 85.7742 41.4273 85.8744 41.3455C85.9747 41.2636 86.0384 41.1273 86.084 40.9455H86.0749ZM88.5713 39.3818H89.0724V40.4364C89.1818 40.4273 89.2638 40.4 89.3002 40.3455C89.3367 40.3 89.4004 40.1727 89.4824 39.9545C89.5827 39.6818 89.692 39.5182 89.7922 39.4545C89.8924 39.3909 90.0656 39.3545 90.2933 39.3545C90.3024 39.3545 90.3298 39.3545 90.3662 39.3545V39.7273H90.2933C90.1931 39.7273 90.1111 39.7364 90.0656 39.7636C90.02 39.7909 89.9836 39.8273 89.9471 39.8818C89.9198 39.9364 89.8742 40.0364 89.8196 40.2C89.7922 40.2818 89.7558 40.3545 89.7193 40.4182C89.6829 40.4727 89.6191 40.5273 89.528 40.5818C89.6373 40.6091 89.7284 40.6727 89.8013 40.7727C89.8742 40.8727 89.9562 41 90.0382 41.1818L90.3753 41.8636H89.7831L89.4824 41.2273C89.4733 41.2182 89.4642 41.2 89.4551 41.1727C89.446 41.1636 89.4278 41.1273 89.3913 41.0545C89.3276 40.9364 89.2729 40.8545 89.2364 40.8273C89.1909 40.8 89.1362 40.7818 89.0451 40.7818V41.8636H88.544V39.3818H88.5713ZM92.2613 39.3818H92.726V41.0364L93.7373 39.3818H94.2384V41.8636H93.7738V40.2364L92.7624 41.8636H92.2613V39.3818ZM96.3249 39.3818H96.7896V41.0364L97.8009 39.3818H98.302V41.8636H97.8373V40.2364L96.826 41.8636H96.3249V39.3818ZM97.6096 38.6636H97.8464C97.8373 38.8182 97.7827 38.9364 97.6824 39.0273C97.5913 39.1182 97.4638 39.1545 97.318 39.1545C97.1631 39.1545 97.0447 39.1091 96.9536 39.0273C96.8624 38.9364 96.8078 38.8182 96.7896 38.6636H97.0264C97.0356 38.7455 97.0629 38.8 97.1084 38.8455C97.154 38.8909 97.2269 38.9091 97.318 38.9091C97.4091 38.9091 97.482 38.8909 97.5276 38.8455C97.5731 38.8 97.6004 38.7455 97.6096 38.6636ZM102.183 40.0545L101.691 39.9364C101.801 39.5273 102.092 39.3273 102.593 39.3273C102.885 39.3273 103.104 39.3909 103.258 39.5182C103.404 39.6455 103.477 39.8 103.477 39.9727C103.477 40.0909 103.441 40.2 103.377 40.2909C103.313 40.3818 103.204 40.4727 103.067 40.5455C103.231 40.6 103.359 40.6818 103.441 40.7818C103.523 40.8818 103.568 41.0091 103.568 41.1636C103.568 41.3818 103.486 41.5545 103.331 41.6909C103.167 41.8273 102.93 41.8909 102.612 41.8909C102.347 41.8909 102.147 41.8455 101.992 41.7636C101.837 41.6727 101.728 41.5182 101.655 41.2727L102.11 41.1273C102.156 41.2727 102.22 41.3727 102.302 41.4182C102.384 41.4636 102.475 41.4818 102.593 41.4818C102.748 41.4818 102.867 41.4455 102.94 41.3818C103.012 41.3091 103.049 41.2364 103.049 41.1455C103.049 41.0455 103.003 40.9636 102.921 40.9C102.839 40.8364 102.712 40.8091 102.548 40.8091H102.429V40.4364H102.484C102.639 40.4364 102.757 40.4 102.839 40.3364C102.921 40.2636 102.958 40.1727 102.958 40.0636C102.958 39.9727 102.921 39.9 102.858 39.8364C102.794 39.7727 102.694 39.7455 102.575 39.7455C102.366 39.7455 102.229 39.8455 102.174 40.0545H102.183ZM107.814 41.8636H107.267L107.049 41.3H106.046L105.837 41.8636H105.308L106.274 39.3818H106.803L107.796 41.8636H107.814ZM106.894 40.8818L106.548 39.9636L106.21 40.8818H106.894ZM109.654 39.3818H110.648C110.848 39.3818 110.994 39.3909 111.085 39.4091C111.185 39.4273 111.267 39.4636 111.349 39.5091C111.422 39.5636 111.486 39.6273 111.54 39.7182C111.595 39.8 111.613 39.9 111.613 40.0091C111.613 40.1273 111.586 40.2273 111.522 40.3273C111.458 40.4273 111.376 40.5 111.267 40.5455C111.422 40.5909 111.531 40.6636 111.613 40.7727C111.695 40.8818 111.732 41 111.732 41.1455C111.732 41.2545 111.704 41.3727 111.65 41.4727C111.595 41.5818 111.522 41.6636 111.431 41.7273C111.34 41.7909 111.231 41.8273 111.094 41.8455C111.012 41.8545 110.812 41.8636 110.493 41.8636H109.645V39.3818H109.654ZM110.156 39.7909V40.3636H110.484C110.675 40.3636 110.802 40.3636 110.848 40.3545C110.93 40.3455 111.003 40.3182 111.048 40.2636C111.094 40.2182 111.121 40.1545 111.121 40.0727C111.121 40 111.103 39.9364 111.058 39.8818C111.012 39.8364 110.948 39.8091 110.866 39.7909C110.821 39.7818 110.675 39.7818 110.438 39.7818H110.146L110.156 39.7909ZM110.156 40.7727V41.4364H110.62C110.802 41.4364 110.912 41.4273 110.966 41.4182C111.039 41.4 111.103 41.3727 111.149 41.3182C111.194 41.2636 111.222 41.1909 111.222 41.1091C111.222 41.0364 111.203 40.9727 111.167 40.9182C111.13 40.8636 111.076 40.8273 111.012 40.8C110.939 40.7727 110.793 40.7636 110.566 40.7636H110.156V40.7727ZM113.417 40.6273C113.417 40.3727 113.454 40.1636 113.536 39.9909C113.59 39.8636 113.672 39.7545 113.764 39.6455C113.864 39.5455 113.973 39.4727 114.082 39.4182C114.237 39.3545 114.42 39.3182 114.62 39.3182C114.984 39.3182 115.276 39.4364 115.504 39.6636C115.722 39.8909 115.832 40.2091 115.832 40.6091C115.832 41.0091 115.722 41.3273 115.504 41.5545C115.285 41.7818 114.994 41.8909 114.629 41.8909C114.256 41.8909 113.964 41.7818 113.745 41.5545C113.527 41.3273 113.417 41.0182 113.417 40.6182V40.6273ZM113.937 40.6091C113.937 40.8909 114 41.1 114.128 41.2455C114.256 41.3909 114.42 41.4636 114.62 41.4636C114.82 41.4636 114.984 41.3909 115.112 41.2455C115.24 41.1 115.303 40.8818 115.303 40.6C115.303 40.3182 115.24 40.1 115.112 39.9636C114.984 39.8273 114.82 39.7545 114.611 39.7545C114.401 39.7545 114.237 39.8273 114.11 39.9636C113.982 40.1091 113.918 40.3182 113.918 40.6091H113.937ZM117.827 39.3727H119.54V41.4364H119.759V42.4H119.34V41.8636H117.782V42.4H117.362V41.4364H117.572C117.672 41.2273 117.745 40.9818 117.772 40.7C117.809 40.4182 117.818 40.0636 117.818 39.6364V39.3727H117.827ZM118.31 39.7909C118.31 40.5455 118.237 41.0909 118.1 41.4364H119.039V39.7909H118.31Z" fill="#424764"/>
</svg>
